<!DOCTYPE svg PUBLIC "-//W3C//DTD SVG 1.1//EN" "http://www.w3.org/Graphics/SVG/1.1/DTD/svg11.dtd">
<!-- Uploaded to: SVG Repo, www.svgrepo.com, Transformed by: SVG Repo Mixer Tools -->
<svg fill="#2563eb" height="800px" width="800px" version="1.1" xmlns="http://www.w3.org/2000/svg" viewBox="0 0 295.988 295.988" xmlns:xlink="http://www.w3.org/1999/xlink" enable-background="new 0 0 295.988 295.988" stroke="#2563eb" stroke-width="1.47994">
<g id="SVGRepo_bgCarrier" stroke-width="0"/>
<g id="SVGRepo_tracerCarrier" stroke-linecap="round" stroke-linejoin="round" stroke="#CCCCCC" stroke-width="1.1839520000000001"/>
<g id="SVGRepo_iconCarrier"> <g> <path d="m68.81,207.783h-20.339c-6.231,0-11.301,5.07-11.301,11.301v65.603c0,6.231 5.069,11.301 11.301,11.301h20.339c6.231,0 11.301-5.07 11.301-11.301v-65.603c0-6.231-5.069-11.301-11.301-11.301zm-.699,76.205h-18.94v-64.206h18.94v64.206z"/> <path d="m120.882,218.263h-20.339c-6.231,0-11.302,5.069-11.302,11.301v55.124c0,6.231 5.07,11.301 11.302,11.301h20.339c6.231,0 11.301-5.07 11.301-11.301v-55.124c0-6.232-5.069-11.301-11.301-11.301zm-.699,65.725h-18.941v-53.726h18.941v53.726z"/> <path d="m172.955,231.087h-20.34c-6.231,0-11.301,5.069-11.301,11.301v42.299c0,6.231 5.069,11.301 11.301,11.301h20.34c6.231,0 11.301-5.07 11.301-11.301v-42.299c-0.001-6.232-5.07-11.301-11.301-11.301zm-.7,52.901h-18.941v-40.901h18.941v40.901z"/> <path d="m226.536,211.162h-20.339c-6.231,0-11.302,5.07-11.302,11.301v62.224c0,6.231 5.07,11.301 11.302,11.301h20.339c6.231,0 11.301-5.07 11.301-11.301v-62.224c0-6.232-5.07-11.301-11.301-11.301zm-.699,72.826h-18.941v-60.827h18.941v60.827z"/> <path d="m268.365,52.337l-47.055-47.054c-3.406-3.407-7.936-5.283-12.754-5.283s-9.347,1.876-12.754,5.283l-9.813,9.815c-3.407,3.407-5.284,7.936-5.284,12.754s1.877,9.347 5.284,12.754l47.054,47.054c3.406,3.407 7.937,5.283 12.754,5.283s9.347-1.876 12.753-5.283l9.815-9.815c7.032-7.032 7.032-18.475 0-25.508zm-8.485,17.022l-9.816,9.815c-1.14,1.14-2.655,1.768-4.268,1.768s-3.129-0.628-4.27-1.768l-47.053-47.054c-1.14-1.14-1.769-2.656-1.769-4.269s0.629-3.128 1.77-4.269l9.814-9.815c1.14-1.14 2.655-1.768 4.268-1.768s3.129,0.628 4.27,1.768l47.054,47.054c2.353,2.355 2.353,6.185 0,8.538z"/> <path d="m174.476,35.095c-0.005-0.006-0.012-0.01-0.018-0.015-0.195-0.194-0.406-0.373-0.628-0.539-0.037-0.028-0.075-0.054-0.112-0.081-0.444-0.317-0.934-0.576-1.464-0.766-0.054-0.019-0.107-0.037-0.162-0.055-0.259-0.084-0.524-0.158-0.8-0.208l-54.421-9.743-.006-.001c-11.789-2.34-23.785,0.031-33.798,6.684-10.052,6.679-16.9,16.873-19.285,28.703l-2.47,12.246c-2.788,13.832 6.197,27.354 20.029,30.143 6.701,1.349 13.525,0.011 19.219-3.771 5.693-3.783 9.573-9.557 10.924-16.257l1.408-6.987 23.284,2.036 62.528,62.527c0.001,0.002 0.003,0.004 0.004,0.005l11.36,11.36c1.006,1.006 1.56,2.344 1.56,3.767 0,1.423-0.554,2.761-1.56,3.767-2.077,2.076-5.453,2.077-7.531,0.003-0.001-0.001-0.002-0.002-0.003-0.003l-30.43-30.43c-0.586-0.586-1.263-1.025-1.985-1.318-0.722-0.293-1.49-0.44-2.258-0.44-1.152,0-2.303,0.329-3.301,0.988-0.333,0.22-0.648,0.476-0.941,0.769-2.344,2.343-2.344,6.142-0.001,8.485l30.431,30.43c1.006,1.006 1.56,2.344 1.56,3.767s-0.554,2.761-1.561,3.768c-1.006,1.006-2.343,1.56-3.766,1.56-1.421,0-2.757-0.553-3.764-1.557-0.001-0.001-0.002-0.002-0.003-0.003l-30.43-30.43c-0.586-0.586-1.263-1.025-1.985-1.318s-1.49-0.439-2.258-0.439c-1.152,0-2.303,0.329-3.301,0.989-0.333,0.22-0.648,0.476-0.941,0.769-0.586,0.586-1.025,1.263-1.318,1.985-0.879,2.167-0.439,4.743 1.317,6.5l30.431,30.43c1.006,1.006 1.56,2.344 1.56,3.767s-0.554,2.76-1.56,3.767c-1.007,1.006-2.345,1.561-3.768,1.561s-2.76-0.554-3.767-1.561l-30.431-30.43c-2.342-2.343-6.142-2.343-8.485,0-2.343,2.343-2.343,6.142 0.001,8.485l30.43,30.429c2.077,2.078 2.077,5.458-0.001,7.535-1.006,1.006-2.343,1.56-3.766,1.56-1.424,0-2.761-0.554-3.768-1.56l-121.884-121.887c-2.342-2.343-6.143-2.343-8.484,0-2.344,2.343-2.344,6.142 0,8.485l14.219,14.219 15.068,15.068-8.473,8.472c-5.796,5.797-5.796,15.229 0.001,21.027l3.478,3.478c2.295,2.295 5.212,3.729 8.367,4.184 0.445,3.06 1.826,6.008 4.175,8.358l3.477,3.477c2.293,2.293 5.207,3.728 8.359,4.183 0.456,3.152 1.891,6.066 4.184,8.359l3.477,3.477c2.293,2.293 5.207,3.728 8.359,4.183 0.456,3.152 1.891,6.066 4.184,8.359l3.477,3.477c2.809,2.809 6.542,4.355 10.514,4.355s7.705-1.546 10.515-4.355l8.471-8.472 20.035,20.035c3.272,3.273 7.624,5.075 12.253,5.075 4.628,0 8.979-1.802 12.253-5.076 3.06-3.061 4.719-6.992 5.006-11.004 4.16-0.293 8.034-2.037 11.011-5.015 2.977-2.976 4.72-6.847 5.015-11.005 4.157-0.294 8.029-2.038 11.004-5.014 2.979-2.978 4.722-6.852 5.015-11.012 4.012-0.287 7.944-1.947 11.005-5.008 3.273-3.272 5.075-7.624 5.075-12.252 0-4.629-1.802-8.98-5.074-12.252l-7.117-7.118 27.115-27.115c2.344-2.343 2.344-6.142 0-8.485l-64.079-64.074zm-121.069,103.716l7.941-7.94 7.534,7.534-7.941,7.941c-0.73,0.73-1.584,0.84-2.027,0.84-0.444,0-1.298-0.109-2.029-0.84l-3.477-3.477c-1.119-1.12-1.119-2.94-0.001-4.058zm16.019,16.019l7.941-7.94 7.534,7.534-7.94,7.94c-0.731,0.731-1.585,0.841-2.029,0.841-0.443,0-1.297-0.109-2.028-0.84l-3.477-3.477c-1.119-1.119-1.119-2.94-0.001-4.058zm15.18,18.048c0-0.444 0.109-1.297 0.84-2.028l7.941-7.94 7.534,7.534-7.94,7.94c-0.731,0.731-1.585,0.841-2.029,0.841-0.443,0-1.297-0.109-2.028-0.84l-3.478-3.478c-0.731-0.732-0.84-1.585-0.84-2.029zm24.395,21.525c-0.731,0.731-1.585,0.841-2.029,0.841-0.443,0-1.297-0.109-2.028-0.84l-3.478-3.478c-0.73-0.731-0.84-1.584-0.84-2.028s0.109-1.297 0.84-2.028l7.941-7.941 7.533,7.534-7.939,7.94zm93.951-68.116l-59.835-59.834c-0.997-0.998-2.314-1.612-3.72-1.734l-30.804-2.693c-0.177-0.016-0.353-0.023-0.527-0.023-2.829,0-5.309,1.994-5.877,4.815l-2.469,12.245c-0.717,3.558-2.777,6.625-5.801,8.633-3.023,2.009-6.646,2.72-10.207,2.003-7.346-1.481-12.117-8.662-10.637-16.008l2.469-12.245c1.751-8.688 6.781-16.174 14.163-21.079 7.382-4.905 16.232-6.641 24.92-4.89 0.043,0.008 0.085,0.017 0.128,0.024l52.567,9.411 58.502,58.502-22.872,22.873z"/> </g> </g>
</svg>